<svg xmlns="http://www.w3.org/2000/svg" viewBox="0 0 16 16"><path fill="#FFC107" d="M10.376.985a1.426 1.426 0 0 0-2.711.881l3.685 11.339a1.426 1.426 0 0 0 1.734.884c.756-.218 1.218-1.021.976-1.764L10.376.985z"/><path fill="#4CAF50" d="M4.666 2.841a1.425 1.425 0 1 0-2.711.881L5.64 15.06a1.426 1.426 0 0 0 1.734.884c.756-.218 1.218-1.021.976-1.764L4.666 2.841z"/><path fill="#EC407A" d="M15.015 10.376a1.425 1.425 0 1 0-.881-2.711L2.795 11.351a1.426 1.426 0 0 0-.884 1.734c.218.756 1.021 1.218 1.764.976l11.34-3.685z"/><path fill="#472A49" d="M5.158 13.579l2.71-.881-.881-2.71-2.71.881.881 2.71z"/><path fill="#CC2027" d="M10.869 11.723l2.71-.881-.881-2.711-2.71.881.881 2.711z"/><path fill="#2196F3" d="M13.159 4.666a1.425 1.425 0 1 0-.881-2.711L.94 5.64a1.424 1.424 0 0 0-.884 1.734c.218.756 1.021 1.217 1.764.976l11.339-3.684z"/><path fill="#1A937D" d="M3.302 7.868l2.711-.881-.881-2.71-2.71.881.88 2.71z"/><path fill="#65863A" d="M9.013 6.013l2.711-.881-.881-2.711-2.711.881.881 2.711z"/></svg>