<?xml version="1.0" encoding="iso-8859-1"?>
<!-- Generator: Adobe Illustrator 17.1.0, SVG Export Plug-In . SVG Version: 6.00 Build 0)  -->
<!DOCTYPE svg PUBLIC "-//W3C//DTD SVG 1.1//EN" "http://www.w3.org/Graphics/SVG/1.1/DTD/svg11.dtd">
<svg version="1.1" id="Capa_1" xmlns="http://www.w3.org/2000/svg" xmlns:xlink="http://www.w3.org/1999/xlink" x="0px" y="0px"
	 viewBox="0 0 404.69 404.69" style="enable-background:new 0 0 404.69 404.69;" xml:space="preserve">
<path d="M351.527,163.46c0-14.952-12.164-27.116-27.115-27.116c-5.447,0-9.826,1.653-13.016,4.914
	c-3.416,3.492-4.52,7.783-4.839,12.11h-14.388V89.7c0-49.46-40.232-89.7-89.685-89.7s-89.684,40.239-89.684,89.7v63.669h-14.56
	c-0.026-0.884-0.162-1.739-0.403-2.55c-0.554-3.438-1.802-6.757-4.544-9.56c-3.189-3.26-7.568-4.914-13.016-4.914
	c-14.951,0-27.115,12.164-27.115,27.116c0,14.27,11.083,25.993,25.093,27.032v22.692c0,32.797,13.098,62.295,36.879,83.062
	c20.396,17.809,47.57,28.411,77.35,30.352v58.092h-59.272c-5.522,0-10,4.477-10,10s4.478,10,10,10h138.545c5.522,0,10-4.477,10-10
	s-4.478-10-10-10h-59.272v-58.092c29.78-1.941,56.953-12.543,77.35-30.352c23.781-20.767,36.879-50.265,36.879-83.062v-22.714
	C340.59,189.298,351.527,177.636,351.527,163.46z M132.801,136.702h50.249c5.522,0,10-4.477,10-10s-4.478-10-10-10h-50.249v-16.667
	h50.249c5.522,0,10-4.477,10-10s-4.478-10-10-10h-49.564C138.207,46.162,167.341,20,202.485,20c38.424,0,69.685,31.267,69.685,69.7
	v63.669H132.801V136.702z M202.485,263.355c-32.783,0-60.334-22.768-67.722-53.32h53.287c5.522,0,10-4.477,10-10s-4.478-10-10-10
	h-55.249v-16.667h139.368v20.288C272.169,232.088,240.908,263.355,202.485,263.355z M98.256,213.185v-39.816h14.545v20.288
	c0,46.08,34.921,84.148,79.684,89.139v23.758C137.313,302.45,98.256,264.456,98.256,213.185z M212.485,306.553v-23.758
	c44.762-4.99,79.685-43.059,79.685-89.139v-20.288h14.374c0.041,0.596,0.095,1.192,0.17,1.785v38.031
	C306.713,264.456,267.656,302.45,212.485,306.553z"/>
<g>
</g>
<g>
</g>
<g>
</g>
<g>
</g>
<g>
</g>
<g>
</g>
<g>
</g>
<g>
</g>
<g>
</g>
<g>
</g>
<g>
</g>
<g>
</g>
<g>
</g>
<g>
</g>
<g>
</g>
</svg>
