<svg 

xmlns="http://www.w3.org/2000/svg" enable-background="new 0 0 47.5 47.5" viewBox="0 0 47.5 47.5"><defs><clip-path id="a"><path d="M0 38h38V0H0v38Z"/></clip-path></defs><g clip-path="url(#a)" transform="matrix(1.25 0 0 -1.25 0 47.5)"><path fill="#ffcc4d" d="M0 0c0-9.389-7.611-17-17-17S-34-9.389-34 0s7.611 17 17 17S0 9.389 0 0" transform="translate(36 19)"/><path fill="#664500" d="M0 0c0-2.763-1.791-3-4-3-2.21 0-4 .237-4 3 0 2.761 1.79 6 4 6 2.209 0 4-3.239 4-6" transform="translate(23 10)"/><path fill="#664500" d="M0 0a.987.987 0 0 0-.371.072C-5.6 2.163-7.743 5.312-7.832 5.446A1 1 0 0 0-6.17 6.559c.019-.028 1.93-2.786 6.541-4.63A1 1 0 0 0 0 0" transform="translate(31 22)"/><path fill="#664500" d="M0 0a1.001 1.001 0 0 0-.372 1.929C4.24 3.773 6.151 6.531 6.17 6.559a1 1 0 0 0 1.662-1.113C7.743 5.312 5.599 2.163.371.072A.99.99 0 0 0 0 0" transform="translate(7 22)"/><path fill="#5dadec" d="m0 0 4 .046v18.953H0V0Zm16 19h4V0l-4 .046V19Z" transform="translate(9 2)"/><path fill="#664500" d="M0 0c-.15 0-.303.034-.446.105-3.512 1.757-7.071.019-7.106 0a1 1 0 1 0-.894 1.79c.182.089 4.498 2.196 8.894 0A1 1 0 0 0 0 0" transform="translate(15.999 19)"/><path fill="#664500" d="M0 0c-.15 0-.303.034-.446.105-3.513 1.756-7.071.019-7.106 0a1 1 0 1 0-.894 1.79c.181.089 4.501 2.196 8.894 0A1 1 0 0 0 0 0" transform="translate(29.999 19)"/><path fill="#5dadec" d="M0 0c0-1.104-8.059-2-18-2s-18 .896-18 2 8.059 2 18 2S0 1.104 0 0" transform="translate(37 3)"/><path fill="#e75a70" d="M0 0c0-1.657-1.343-2-3-2s-3 .343-3 2 1.343 2 3 2 3-.343 3-2" transform="translate(22 10)"/></g></svg>
