<?xml version="1.0" ?><svg viewBox="0 0 60 60" xmlns="http://www.w3.org/2000/svg"><rect fill="#fff" height="60" rx="10" width="60"/><path d="M40,52H14a6,6,0,0,1-6-6V14a6,6,0,0,1,6-6H46a6,6,0,0,1,6,6V40Z" fill="#f1f3f4"/><path d="M40,53.5H14A7.508,7.508,0,0,1,6.5,46V14A7.508,7.508,0,0,1,14,6.5H46A7.508,7.508,0,0,1,53.5,14V40a1.5,1.5,0,0,1-.439,1.061l-12,12A1.5,1.5,0,0,1,40,53.5ZM14,9.5A4.505,4.505,0,0,0,9.5,14V46A4.505,4.505,0,0,0,14,50.5H39.379L50.5,39.379V14A4.505,4.505,0,0,0,46,9.5Z" fill="#aaadbf"/><rect fill="#eff28d" height="32" width="32" x="14" y="14"/><path d="M46,47.5H14A1.5,1.5,0,0,1,12.5,46V14A1.5,1.5,0,0,1,14,12.5H46A1.5,1.5,0,0,1,47.5,14V46A1.5,1.5,0,0,1,46,47.5Zm-30.5-3h29v-29h-29Z" fill="#f2bf80"/><path d="M52,40H46a6,6,0,0,0-6,6v6Z" fill="#f1f3f4"/><path d="M40,53.5A1.5,1.5,0,0,1,38.5,52V46A7.508,7.508,0,0,1,46,38.5h6a1.5,1.5,0,0,1,1.061,2.561l-12,12A1.5,1.5,0,0,1,40,53.5Zm6-12A4.505,4.505,0,0,0,41.5,46v2.379L48.379,41.5Z" fill="#aaadbf"/><path d="M22,27.5A1.5,1.5,0,0,1,20.5,26V22a1.5,1.5,0,0,1,3,0v4A1.5,1.5,0,0,1,22,27.5Z" fill="#7f778c"/><path d="M38,27.5A1.5,1.5,0,0,1,36.5,26V22a1.5,1.5,0,0,1,3,0v4A1.5,1.5,0,0,1,38,27.5Z" fill="#7f778c"/><path d="M30,39.506c-3.048,0-6.1-1.482-9.061-4.445a1.5,1.5,0,0,1,2.122-2.122c4.734,4.735,9.144,4.735,13.878,0a1.5,1.5,0,0,1,2.122,2.122C36.1,38.024,33.049,39.506,30,39.506Z" fill="#7f778c"/><path d="M14,47.5A1.5,1.5,0,0,1,12.5,46V14A1.5,1.5,0,0,1,14,12.5H46a1.5,1.5,0,0,1,0,3H15.5V46A1.5,1.5,0,0,1,14,47.5Z" fill="#ffe1a0"/></svg>