<?xml version="1.0" encoding="iso-8859-1"?>
<!-- Generator: Adobe Illustrator 19.0.0, SVG Export Plug-In . SVG Version: 6.00 Build 0)  -->
<svg version="1.1" id="Layer_1" xmlns="http://www.w3.org/2000/svg" xmlns:xlink="http://www.w3.org/1999/xlink" x="0px" y="0px"
	 viewBox="0 0 299.34 299.34" style="enable-background:new 0 0 299.34 299.34;" xml:space="preserve">
<g>
	<g>
		<path d="M282.868,56.803H204.27l6.877-6.158c0.505-0.452,0.957-0.958,1.35-1.509c10.05-14.091,6.762-33.731-7.331-43.781
			c-6.72-4.792-15.185-6.475-23.225-4.612c-8.041,1.861-14.906,7.09-18.837,14.345l-13.434,24.799l-13.434-24.799
			c-3.931-7.256-10.797-12.486-18.837-14.346c-8.042-1.862-16.507-0.18-23.225,4.612c-14.091,10.05-17.38,29.69-7.331,43.781
			c0.394,0.552,0.847,1.058,1.35,1.509l6.877,6.158H16.474c-5.07,0-9.18,4.11-9.18,9.18v58.204c0,5.07,4.11,9.18,9.18,9.18h2.432
			V290.16c0,5.07,4.11,9.18,9.18,9.18h243.17c5.07,0,9.18-4.11,9.18-9.18V133.366h2.432c5.07,0,9.18-4.11,9.18-9.18V65.983
			C292.048,60.913,287.937,56.803,282.868,56.803z M179.248,23.833c1.446-2.671,3.873-4.519,6.833-5.204
			c0.802-0.186,1.605-0.277,2.401-0.277c2.142,0,4.221,0.664,6.024,1.95c2.834,2.021,4.71,5.023,5.285,8.457
			c0.525,3.14-0.096,6.293-1.751,8.977l-21.295,19.067h-15.357L179.248,23.833z M99.549,28.76c0.574-3.432,2.451-6.436,5.286-8.457
			c2.473-1.764,5.463-2.359,8.425-1.673c2.959,0.684,5.386,2.533,6.833,5.204l17.86,32.969h-15.357l-21.296-19.067
			C99.645,35.053,99.024,31.898,99.549,28.76z M115.508,280.981H37.265V133.367h78.243V280.981z M165.472,280.981h-31.604V133.367
			h31.604V280.981z M262.076,280.981h-78.243V133.367h78.243V280.981z M273.688,115.007H25.653V75.163h248.034V115.007z"/>
	</g>
</g>
<g>
</g>
<g>
</g>
<g>
</g>
<g>
</g>
<g>
</g>
<g>
</g>
<g>
</g>
<g>
</g>
<g>
</g>
<g>
</g>
<g>
</g>
<g>
</g>
<g>
</g>
<g>
</g>
<g>
</g>
</svg>
