<?xml version="1.0" encoding="iso-8859-1"?>
<!-- Generator: Adobe Illustrator 17.1.0, SVG Export Plug-In . SVG Version: 6.00 Build 0)  -->
<!DOCTYPE svg PUBLIC "-//W3C//DTD SVG 1.1//EN" "http://www.w3.org/Graphics/SVG/1.1/DTD/svg11.dtd">
<svg version="1.1" id="Capa_1" xmlns="http://www.w3.org/2000/svg" xmlns:xlink="http://www.w3.org/1999/xlink" x="0px" y="0px"
	 viewBox="0 0 410.414 410.414" style="enable-background:new 0 0 410.414 410.414;" xml:space="preserve">
<g>
	<path d="M323.14,148.583c-5.523,0-10,4.477-10,10v53.789c0,63.615-55.755,86.282-107.934,86.282S97.273,275.987,97.273,212.372
		v-53.789c0-5.523-4.477-10-10-10s-10,4.477-10,10v53.789c0,33.888,13.334,61.751,38.561,80.58
		c20.407,15.231,47.703,23.932,79.373,25.441v72.022h-61.52c-5.523,0-10,4.477-10,10s4.477,10,10,10h143.039c5.523,0,10-4.477,10-10
		s-4.477-10-10-10h-61.52v-72.022c31.67-1.508,58.966-10.21,79.373-25.441c25.227-18.828,38.561-46.692,38.561-80.58v-53.789
		C333.14,153.06,328.663,148.583,323.14,148.583z"/>
	<path d="M138.642,267.736c16.35,10.689,38.746,16.109,66.565,16.109s50.215-5.42,66.565-16.109
		c19.517-12.76,29.833-33.036,29.833-58.637V85.573C301.606,35.189,261.965,0,205.207,0c-56.758,0-96.398,35.189-96.398,85.573
		v123.526C108.808,234.7,119.125,254.976,138.642,267.736z M205.207,20c38.028,0,76.399,20.276,76.399,65.573v9.207h-40.312
		c-5.523,0-10,4.477-10,10s4.477,10,10,10h40.312v23.305h-40.312c-5.523,0-10,4.477-10,10s4.477,10,10,10h40.312v23.305h-40.312
		c-5.523,0-10,4.477-10,10s4.477,10,10,10h40.312v7.71c0,19.052-6.796,32.756-20.778,41.897
		c-12.857,8.406-32.091,12.849-55.621,12.849s-42.763-4.443-55.621-12.849c-13.981-9.141-20.777-22.845-20.777-41.897v-7.71h40.312
		c5.523,0,10-4.477,10-10s-4.477-10-10-10h-40.312v-23.305h40.312c5.523,0,10-4.477,10-10s-4.477-10-10-10h-40.312V114.78h40.312
		c5.523,0,10-4.477,10-10s-4.477-10-10-10h-40.312v-9.207C128.808,40.276,167.179,20,205.207,20z"/>
</g>
<g>
</g>
<g>
</g>
<g>
</g>
<g>
</g>
<g>
</g>
<g>
</g>
<g>
</g>
<g>
</g>
<g>
</g>
<g>
</g>
<g>
</g>
<g>
</g>
<g>
</g>
<g>
</g>
<g>
</g>
</svg>
