<svg xmlns="http://www.w3.org/2000/svg" version="1.1" xmlns:xlink="http://www.w3.org/1999/xlink" xmlns:svgjs="http://svgjs.com/svgjs" width="1440" height="560" preserveAspectRatio="none" viewBox="0 0 1440 560"><g mask="url(&quot;#SvgjsMask1000&quot;)" fill="none"><rect width="1440" height="560" x="0" y="0" fill="#0e2a47"></rect><path d="M469.4 220.31 a11.56 11.56 0 1 0 23.12 0 a11.56 11.56 0 1 0 -23.12 0z" fill="#e73635"></path><path d="M992.43 503.79L1005.17 503.79L1005.17 516.53L992.43 516.53z" stroke="#e73635"></path><path d="M651.46 531.72L657.91 531.72L657.91 551.19L651.46 551.19z" stroke="#037b0b"></path><path d="M1363.37 408.56L1406.5 408.56L1406.5 451.69L1363.37 451.69z" stroke="#d3b714"></path><path d="M58.74 384.16 a40.12 40.12 0 1 0 80.24 0 a40.12 40.12 0 1 0 -80.24 0z" stroke="#d3b714"></path><path d="M366.92 379.47L401.48 379.47L401.48 414.03L366.92 414.03z" fill="#037b0b"></path><path d="M864.01 205.94a23.34 23.34 0 1 0 25.32 39.22z" fill="#d3b714"></path><path d="M387.38 500.64 a29.43 29.43 0 1 0 58.86 0 a29.43 29.43 0 1 0 -58.86 0z" stroke="#e73635"></path><path d="M170.32 231.86L210.6 231.86L210.6 262.73L170.32 262.73z" fill="#e73635"></path><path d="M978.52 391.64L1002.13 391.64L1002.13 415.25L978.52 415.25z" fill="#037b0b"></path><path d="M1014.06 53.18a13.72 13.72 0 1 0-25.02-11.26z" stroke="#d3b714"></path><path d="M1400.01 366.38L1431.7 366.38L1431.7 371.02L1400.01 371.02z" stroke="#037b0b"></path><path d="M942.24 559.21 a5.7 5.7 0 1 0 11.4 0 a5.7 5.7 0 1 0 -11.4 0z" stroke="#037b0b"></path><path d="M267.49 190.4L276.05 190.4L276.05 198.96L267.49 198.96z" stroke="#e73635"></path><path d="M1357.46 564.13a51.87 51.87 0 1 0 90.94-49.92z" stroke="#037b0b"></path><path d="M58.84 137.93L103.15 137.93L103.15 182.24L58.84 182.24z" fill="#037b0b"></path><path d="M977.81 307.71a30.95 30.95 0 1 0-44.81 42.7z" stroke="#037b0b"></path><path d="M212.06 184.85 a24.51 24.51 0 1 0 49.02 0 a24.51 24.51 0 1 0 -49.02 0z" fill="#d3b714"></path><path d="M658.72 115.76 a34.75 34.75 0 1 0 69.5 0 a34.75 34.75 0 1 0 -69.5 0z" stroke="#037b0b"></path><path d="M106.53 129.8 a24.95 24.95 0 1 0 49.9 0 a24.95 24.95 0 1 0 -49.9 0z" stroke="#d3b714"></path><path d="M1389.58 525.66 a22.49 22.49 0 1 0 44.98 0 a22.49 22.49 0 1 0 -44.98 0z" fill="#037b0b"></path><path d="M856.56 290.48 a42.51 42.51 0 1 0 85.02 0 a42.51 42.51 0 1 0 -85.02 0z" stroke="#d3b714"></path><path d="M1304.25 196.19 a52.05 52.05 0 1 0 104.1 0 a52.05 52.05 0 1 0 -104.1 0z" stroke="#037b0b"></path><path d="M101.68-2.62a51.18 51.18 0 1 0-55.58 85.95z" fill="#e73635"></path><path d="M108.86 534.52L136.88 534.52L136.88 562.54L108.86 562.54z" fill="#e73635"></path><path d="M1246.14 385.46a28.48 28.48 0 1 0 49.83-27.6z" stroke="#e73635"></path><path d="M1359.03 159.53 a17.86 17.86 0 1 0 35.72 0 a17.86 17.86 0 1 0 -35.72 0z" fill="#d3b714"></path><path d="M830.75 31.66L860.31 31.66L860.31 61.22L830.75 61.22z" fill="#e73635"></path><path d="M496.13 42.95L496.52 42.95L496.52 43.34L496.13 43.34z" stroke="#037b0b"></path><path d="M615.3 103.71 a42.34 42.34 0 1 0 84.68 0 a42.34 42.34 0 1 0 -84.68 0z" stroke="#037b0b"></path><path d="M1043.63 399.71 a21.74 21.74 0 1 0 43.48 0 a21.74 21.74 0 1 0 -43.48 0z" stroke="#037b0b"></path><path d="M1145.57 120.41L1168.84 120.41L1168.84 172.51L1145.57 172.51z" fill="#e73635"></path><path d="M141.91 222.88 a24.12 24.12 0 1 0 48.24 0 a24.12 24.12 0 1 0 -48.24 0z" stroke="#d3b714"></path></g><defs><mask id="SvgjsMask1000"><rect width="1440" height="560" fill="#ffffff"></rect></mask></defs></svg>