<?xml version="1.0" encoding="iso-8859-1"?>
<!-- Generator: Adobe Illustrator 17.1.0, SVG Export Plug-In . SVG Version: 6.00 Build 0)  -->
<!DOCTYPE svg PUBLIC "-//W3C//DTD SVG 1.1//EN" "http://www.w3.org/Graphics/SVG/1.1/DTD/svg11.dtd">
<svg version="1.1" id="Capa_1" xmlns="http://www.w3.org/2000/svg" xmlns:xlink="http://www.w3.org/1999/xlink" x="0px" y="0px"
	 viewBox="0 0 550.752 550.752" style="enable-background:new 0 0 550.752 550.752;" xml:space="preserve">
<path d="M219.478,302.192h-10.311V283.03c0-4.143-3.357-7.5-7.5-7.5h-36.269c-4.143,0-7.5,3.357-7.5,7.5v76.536
	c0,4.142,3.357,7.5,7.5,7.5h36.269c4.143,0,7.5-3.358,7.5-7.5v-42.374h10.311c4.143,0,7.5-3.357,7.5-7.5
	C226.978,305.551,223.621,302.192,219.478,302.192z M194.168,352.066h-21.269V290.53h21.269v11.662h-10.635
	c-4.143,0-7.5,3.358-7.5,7.5c0,4.143,3.357,7.5,7.5,7.5h10.635V352.066z M443.756,0H106.997c-4.143,0-7.5,3.358-7.5,7.5v535.752
	c0,4.142,3.357,7.5,7.5,7.5h30.615c4.143,0,7.5-3.358,7.5-7.5v-14.114h260.529v14.114c0,4.142,3.357,7.5,7.5,7.5h30.614
	c4.143,0,7.5-3.358,7.5-7.5V7.5C451.256,3.358,447.898,0,443.756,0z M145.112,514.139V45.615h260.529v468.524H145.112z
	 M436.256,535.752h-15.614V38.115c0-4.142-3.357-7.5-7.5-7.5H137.612c-4.143,0-7.5,3.358-7.5,7.5v497.638h-15.615V15h321.759
	V535.752z M344.164,136.879l-35.38,25.705l13.515,41.592c1.004,3.09-0.096,6.475-2.725,8.385c-1.314,0.955-2.861,1.433-4.408,1.433
	s-3.094-0.478-4.408-1.433l-35.381-25.706l-35.381,25.706c-2.629,1.91-6.188,1.91-8.816,0c-2.629-1.91-3.729-5.295-2.725-8.385
	l13.515-41.592l-35.381-25.705c-2.629-1.91-3.729-5.295-2.725-8.386c1.004-3.09,3.884-5.182,7.133-5.182h43.732l13.515-41.592
	c1.004-3.09,3.884-5.183,7.133-5.183s6.129,2.093,7.133,5.183l11.516,41.595c4.044,0.112,7.288,3.426,7.288,7.497
	c0,4.142-3.357,7.5-7.5,7.5h-5.238c-3.249,0-6.129-2.092-7.133-5.182l-6.065-24.822l-8.065,24.822
	c-1.004,3.09-3.884,5.182-7.133,5.182H234.08l21.114,15.34c2.629,1.91,3.729,5.295,2.725,8.385l-8.065,24.822l21.115-15.341
	c2.629-1.909,6.188-1.909,8.816,0l21.115,15.341l-8.065-24.822c-1.004-3.09,0.096-6.475,2.725-8.385l21.114-15.34h-0.686
	c-4.143,0-7.5-3.358-7.5-7.5s3.357-7.5,7.5-7.5h23.768c3.249,0,6.129,2.092,7.133,5.182
	C347.892,131.583,346.793,134.969,344.164,136.879z M298.183,221.801c0,4.143-3.357,7.5-7.5,7.5h-30.614c-4.143,0-7.5-3.357-7.5-7.5
	c0-4.142,3.357-7.5,7.5-7.5h30.614C294.826,214.301,298.183,217.659,298.183,221.801z"/>
<g>
</g>
<g>
</g>
<g>
</g>
<g>
</g>
<g>
</g>
<g>
</g>
<g>
</g>
<g>
</g>
<g>
</g>
<g>
</g>
<g>
</g>
<g>
</g>
<g>
</g>
<g>
</g>
<g>
</g>
</svg>
