<svg xmlns="http://www.w3.org/2000/svg" xmlns:xlink="http://www.w3.org/1999/xlink" viewBox="0 0 62 65" fill="#fff" fill-rule="evenodd" stroke="#000" stroke-linecap="round" stroke-linejoin="round"><use xlink:href="#A" x=".5" y=".5"/><symbol id="A" overflow="visible"><g stroke="none" fill-rule="nonzero"><path d="M25.92 34.453l8.64-5.013 8.533 5.013-8.533 4.907-8.64-4.8zM0 19.627L34.56 0l25.707 14.613-8.533 14.827-17.173-9.813-25.92 14.72z" fill="#f6bd3a"/><path d="M25.92 54.08v-9.813l8.533-4.907 8.64-4.907v9.813l-8.533 4.907v9.813L25.92 64zm0-19.627l-8.64-4.907-8.64 4.8v-9.813l25.92-14.72V29.44zm25.707-9.92v-4.907l8.64-5.013.107 9.813-8.64 5.013z" fill="#eb8c23"/><path d="M17.28 58.773V29.547l8.533-4.8.107 9.707 8.64 4.8v9.92l-8.64-4.587V64zM4.267 31.787L0 29.227v-9.6l8.64 4.907v9.813l-4.373-2.56zm30.293-12.16V9.813l17.067 9.813.107 9.813-17.173-9.813z" fill="#e35a2b"/></g></symbol></svg>