<?xml version="1.0" encoding="iso-8859-1"?>
<!-- Generator: Adobe Illustrator 19.0.0, SVG Export Plug-In . SVG Version: 6.00 Build 0)  -->
<svg version="1.1" id="Layer_1" xmlns="http://www.w3.org/2000/svg" xmlns:xlink="http://www.w3.org/1999/xlink" x="0px" y="0px"
	 viewBox="0 0 330.01 330.01" style="enable-background:new 0 0 330.01 330.01;" xml:space="preserve">
<g id="XMLID_221_">
	<path id="XMLID_222_" d="M30.755,290.512c20.472,20.472,47.354,30.707,74.245,30.704c26.886-0.002,53.779-10.237,74.247-30.704
		L308.079,161.68c29.242-29.243,29.24-76.823-0.002-106.065c-14.164-14.166-32.998-21.967-53.031-21.967
		s-38.867,7.801-53.033,21.967L83.786,173.84c-17.545,17.545-17.545,46.093,0,63.64c17.547,17.545,46.096,17.544,63.641-0.002
		l77.85-77.85c5.857-5.858,5.857-15.355,0-21.213c-5.857-5.858-15.355-5.858-21.213,0l-77.85,77.85
		c-5.848,5.85-15.365,5.849-21.215,0.001c-5.848-5.849-5.848-15.366,0-21.214L223.226,76.828c8.5-8.499,19.8-13.18,31.82-13.18
		c12.02,0,23.319,4.681,31.818,13.18c17.545,17.546,17.547,46.094,0.002,63.64L158.034,269.298
		c-29.244,29.242-76.825,29.241-106.066,0C37.802,255.133,30,236.299,30,216.266s7.802-38.868,21.968-53.034L180.798,34.4
		c5.857-5.858,5.857-15.356,0-21.213c-5.857-5.857-15.355-5.858-21.213,0L30.755,142.019C10.923,161.851,0,188.219,0,216.266
		C0,244.313,10.923,270.681,30.755,290.512z"/>
</g>
<g>
</g>
<g>
</g>
<g>
</g>
<g>
</g>
<g>
</g>
<g>
</g>
<g>
</g>
<g>
</g>
<g>
</g>
<g>
</g>
<g>
</g>
<g>
</g>
<g>
</g>
<g>
</g>
<g>
</g>
</svg>
