<svg 

height="519px" version="1.1" viewBox="0 0 519 519" width="519px" xmlns="http://www.w3.org/2000/svg" xmlns:xlink="http://www.w3.org/1999/xlink"><title/><desc/><defs><radialGradient cx="50%" cy="21.9311119%" fx="50%" fy="21.9311119%" id="radialGradient-1" r="87.8884669%"><stop offset="0%" stop-color="#F25674"/><stop offset="100%" stop-color="#D82D4E"/></radialGradient></defs><g fill="none" fill-rule="evenodd" id="Page-1" stroke="none" stroke-width="1"><g id="Artboard" transform="translate(-718.000000, -153.000000)"><g id="Group-8" transform="translate(718.000000, 153.000000)"><circle cx="259.5" cy="259.5" fill="url(#radialGradient-1)" id="Oval" r="259.5"/><path d="M237.086529,138.80608 C235.763557,139.440317 234.935533,140.79148 234.971012,142.258195 C235.485754,163.548955 235.743125,175.889925 235.743125,179.281104 L235.743125,188.873365 L234.138208,192.230657 C232.335702,196.000895 231.404908,197.564913 218.202837,219.013209 C213.03262,227.412672 206.19937,238.923385 203.017623,244.592891 C199.225611,251.3501 197.240732,258.971215 197.254816,266.719701 L197.44295,370.230328 C197.466007,382.916534 207.756684,393.188525 220.442912,393.188525 L333.642136,393.188525 L333.642136,393.188525 L337.768721,391.163598 C347.035014,386.615428 353.838723,376.033245 353.88812,366.090387 C353.907491,362.256361 353.784967,361.759481 351.839113,357.747998 C350.701046,355.40221 349.829334,353.447308 349.901977,353.404142 C349.974619,353.360977 352.110797,352.410864 354.64893,351.292886 C365.553072,346.488602 371.969837,338.853162 372.434266,330.129001 C372.679798,325.522797 371.601297,322.340085 367.958996,316.918539 C366.490646,314.732942 365.289137,312.816409 365.289137,312.659095 C365.289137,312.502262 365.644602,312.373726 366.079005,312.373726 C366.513892,312.373726 368.638446,311.457185 370.800775,310.336809 C380.678235,305.219817 386.333221,295.507174 384.73024,286.412271 C383.662394,280.35284 380.469993,275.535127 373.377651,269.278095 L371.054056,267.228229 L373.724399,264.371654 C377.168628,260.687266 379.258798,257.655152 380.631259,254.352057 C381.532996,252.180849 381.733974,250.790451 381.743176,246.647553 C381.761094,238.747847 379.934859,233.452919 375.612623,228.876931 C372.717572,225.811724 369.487881,223.817013 364.923018,222.274577 L361.172722,221.00744 C309.678142,220.722869 283.931336,220.517595 283.932305,220.391617 C283.934242,220.202649 284.368645,216.487087 284.897967,212.134598 C286.11013,202.168239 286.24234,183.978435 285.150279,177.362652 C282.040691,158.523931 272.02182,143.768156 258.839121,138.610877 C255.53824,137.319759 254.453444,137.138465 249.303082,137.020001 C246.106806,136.94614 242.539569,137.083309 241.376319,137.325034 C240.212584,137.56628 238.282227,138.232942 237.086529,138.80608 Z M130,250.377049 L173.858333,250.377049 C177.724327,250.377049 180.858333,253.511056 180.858333,257.377049 L180.858333,396 C180.858333,399.865993 177.724327,403 173.858333,403 L130,403 C126.134007,403 123,399.865993 123,396 L123,257.377049 C123,253.511056 126.134007,250.377049 130,250.377049 Z" fill="#FFFFFF" id="Shape" transform="translate(254.000000, 270.000000) rotate(-180.000000) translate(-254.000000, -270.000000) "/></g></g></g></svg>
