<?xml version="1.0" ?><svg style="enable-background:new 0 0 48 48;" version="1.1" viewBox="0 0 48 48" xml:space="preserve" xmlns="http://www.w3.org/2000/svg" xmlns:xlink="http://www.w3.org/1999/xlink"><g id="Icons"><g><g><g><circle cx="33.32579" cy="19.00417" r="4.54418" style="fill:#F43734;"/><path d="M35.97859,18.65419h-2.3027v-2.3032c0-0.1934-0.1563-0.3501-0.3496-0.3501      c-0.1934,0-0.3496,0.1567-0.3496,0.3501v2.3032h-2.3038c-0.1933,0-0.3496,0.1568-0.3496,0.3501      c0,0.1934,0.1563,0.3501,0.3496,0.3501h2.3038v2.3028c0,0.1933,0.1562,0.3501,0.3496,0.3501      c0.1933,0,0.3496-0.1568,0.3496-0.3501v-2.3028h2.3027c0.1934,0,0.3496-0.1567,0.3496-0.3501      C36.32819,18.81099,36.17199,18.65419,35.97859,18.65419z" style="fill:#FFFFFF;"/></g></g><g id="Icons_30_"><g><g><path d="M23.37769,26.06089c0.0481,0.8113,0.0481,1.6516,0.3558,2.4147       c0.327,0.8403,1.279,1.1784,2.0386,1.5744c0.4905,0.2608,1.0001,0.5119,1.4905,0.7727       c0.0577,0.029,0.1058,0.0579,0.1635,0.0869c1.0097,0.5312,2.1925,1.0528,3.0195,1.8545       c0.0385,0.0386,0.0769,0.0773,0.1058,0.1159c0.6134,0.7116,0.862,1.5245,0.934,1.8224       c0.0102,0.042-0.0232,0.0804-0.0664,0.0804h-5.9738h-2.4714h-12.7847c-0.0369,0-0.0661-0.0302-0.0576-0.0662       c0.0674-0.2854,0.314-1.1134,0.9375-1.8366c0.0288-0.0386,0.0673-0.0773,0.0961-0.1159       c0.827-0.8017,2.0194-1.3233,3.0195-1.8545c0.5481-0.2898,1.1059-0.5699,1.6636-0.8596       c0.7597-0.396,1.7502-0.7341,2.0771-1.5744c0.3078-0.7631,0.3078-1.6034,0.3558-2.4147" style="fill:#5F83CF;"/><g><path d="M18.28109,26.06089h-1.8078l0.4423-0.5385c0,0-2.0194-0.4039-2.0194-0.5578        c0-0.1631,0.6995-1.0642,0.702-1.0673c0.1111-0.1431-0.2999-1.036-0.3483-1.1878c-0.909-2.8497-0.2685-7.065,2.6656-8.5765        c0.5202-0.268,1.0976-0.4097,1.683-0.4097c1.3109-0.6381,2.7964-0.7398,4.0484,0.0852        c1.1482,0.7566,1.8922,2.0257,2.3815,3.2805c0.4412,1.1315,0.7615,2.3412,0.7589,3.563        c-0.0025,1.149-0.4636,2.1488-0.7267,3.2453c0,0,0.702,0.9039,0.702,1.0674c0,0.1538-2.0194,0.5577-2.0194,0.5577        l0.452,0.5385h-1.8175" style="fill:#5F83CF;"/></g></g></g></g></g></g></svg>